<svg xmlns="http://www.w3.org/2000/svg" xml:space="preserve" data-id="lg_fv7ZQMoTEZ3LnRHHmw" data-version="1" viewBox="0 0 2000 442"><g data-padding="20"><g transform="translate(10 7.893)scale(.96429)"><rect width="239.814" height="224.87" x="506.151" y="-291.435" fill="none" rx="0" ry="0" transform="translate(560.59 400.99)"/><path d="M1138.878 220.82q.8 3.19.8 7.96 0 4.58-.8 7.96.8 3.19.8 7.96 0 4.58-.8 7.96.8 3.19.8 7.96 0 4.58-.8 7.96.8 3.19.8 7.96 0 4.58-.8 7.96h-7.96q.8 3.19.8 7.96 0 4.58-.8 7.96h-7.96q.8 3.19.8 7.96 0 4.58-.8 7.96h-31.84q-.79-3.38-.79-7.96 0-4.77.79-7.96h23.88q-.79-3.38-.79-7.96 0-4.77.79-7.96h7.96q-.79-3.38-.79-7.96 0-4.77.79-7.96h-7.96q-.79-3.38-.79-7.96 0-4.77.79-7.96h7.96q-.79-3.38-.79-7.96 0-4.77.79-7.96-.79-3.38-.79-7.96 0-4.77.79-7.96h-25.87q.8 3.19.8 7.96 0 4.58-.8 7.96h-5.97q.8 3.19.8 7.96 0 4.58-.8 7.96h5.97q.8 3.19.8 7.96 0 4.58-.8 7.96h17.91q.8 3.19.8 7.96 0 4.58-.8 7.96h-23.88q-.79-3.38-.79-7.96 0-4.77.79-7.96h-9.95q-.79-3.38-.79-7.96 0-4.77.79-7.96h-5.97q-.79-3.38-.79-7.96 0-4.77.79-7.96h5.97q-.79-3.38-.79-7.96 0-4.77.79-7.96h9.95q-.79-3.38-.79-7.96 0-4.77.79-7.96h47.76q.8 3.19.8 7.96 0 4.58-.8 7.96m80.4-7.96q0 4.58-.8 7.96h-5.97q.8 3.19.8 7.96 0 4.58-.8 7.96h-5.97q.8 3.19.8 7.96 0 4.58-.8 7.96h-3.98q.8 3.19.8 7.96 0 4.58-.8 7.96h-7.96q.8 3.19.8 7.96 0 4.58-.8 7.96h-15.92q-.79-3.38-.79-7.96 0-4.77.79-7.96h-7.96q-.79-3.38-.79-7.96 0-4.77.79-7.96h-3.98q-.79-3.38-.79-7.96 0-4.77.79-7.96h-5.97q-.79-3.38-.79-7.96 0-4.77.79-7.96h-5.97q-.79-3.38-.79-7.96 0-4.77.79-7.96h15.92q.8 3.19.8 7.96 0 4.58-.8 7.96h5.97q.8 3.19.8 7.96 0 4.58-.8 7.96h5.97q.8 3.19.8 7.96 0 4.58-.8 7.96h7.96q-.79-3.38-.79-7.96 0-4.77.79-7.96h5.97q-.79-3.38-.79-7.96 0-4.77.79-7.96h5.97q-.79-3.38-.79-7.96 0-4.77.79-7.96h15.92q.8 3.19.8 7.96m25.88 0q0 4.58-.8 7.96h5.97q.8 3.19.8 7.96 0 4.58-.8 7.96.8 3.19.8 7.96 0 4.58-.8 7.96.8 3.19.8 7.96 0 4.58-.8 7.96.8 3.19.8 7.96 0 4.58-.8 7.96h-15.92q-.79-3.38-.79-7.96 0-4.77.79-7.96-.79-3.38-.79-7.96 0-4.77.79-7.96-.79-3.38-.79-7.96 0-4.77.79-7.96-.79-3.38-.79-7.96 0-4.77.79-7.96-.79-3.38-.79-7.96 0-4.77.79-7.96h9.95q.8 3.19.8 7.96m21.89 0q0 4.58-.8 7.96h5.97q.8 3.19.8 7.96 0 4.58-.8 7.96.8 3.19.8 7.96 0 4.58-.8 7.96.8 3.19.8 7.96 0 4.58-.8 7.96.8 3.19.8 7.96 0 4.58-.8 7.96h-11.94q-.79-3.38-.79-7.96 0-4.77.79-7.96-.79-3.38-.79-7.96 0-4.77.79-7.96-.79-3.38-.79-7.96 0-4.77.79-7.96-.79-3.38-.79-7.96 0-4.77.79-7.96h-9.95q-.79-3.38-.79-7.96 0-4.77.79-7.96h15.92q.8 3.19.8 7.96m31.04 23.88q.8 3.19.8 7.96 0 4.58-.8 7.96.8 3.19.8 7.96 0 4.58-.8 7.96.8 3.19.8 7.96 0 4.58-.8 7.96h-15.92q-.79-3.38-.79-7.96 0-4.77.79-7.96-.79-3.38-.79-7.96 0-4.77.79-7.96-.79-3.38-.79-7.96 0-4.77.79-7.96-.79-3.38-.79-7.96 0-4.77.79-7.96h-9.95q-.79-3.38-.79-7.96 0-4.77.79-7.96h17.91q.8 3.19.8 7.96 0 4.58-.8 7.96h7.96q.8 3.19.8 7.96 0 4.58-.8 7.96"/><path d="M1188.978 86.348V-.1h-442.2v442.2h442.2v-86.448h-7.2V434.9h-427.8V7.1h427.8v79.248Z"/></g><path fill="transparent" stroke="transparent" d="M720 0h560v442H720z"/></g></svg>